<svg width="173" height="85" viewBox="0 0 173 85" fill="none" xmlns="http://www.w3.org/2000/svg">
<circle cx="49" cy="25" r="25" fill="#D9D9D9"/>
<circle cx="49" cy="15" r="10" fill="white"/>
<circle cx="123" cy="26" r="25" fill="#D9D9D9"/>
<circle cx="124" cy="16" r="10" fill="white"/>
<path d="M89.3301 64.5C87.4056 67.8333 82.5944 67.8333 80.6699 64.5L72.0096 49.5C70.0851 46.1667 72.4907 42 76.3397 42H93.6602C97.5092 42 99.9149 46.1667 97.9904 49.5L89.3301 64.5Z" fill="#D9D9D9"/>
<path d="M3 66L49 66" stroke="#D9D9D9" stroke-width="5" stroke-linecap="round"/>
<path d="M3 54L49 54" stroke="#D9D9D9" stroke-width="5" stroke-linecap="round"/>
<path d="M124 66L170 66" stroke="#D9D9D9" stroke-width="5" stroke-linecap="round"/>
<path d="M124 55L170 55" stroke="#D9D9D9" stroke-width="5" stroke-linecap="round"/>
<path d="M83.5 66C63.1 85.2 49 83.3333 44.5 80" stroke="#D9D9D9" stroke-width="5" stroke-linecap="round"/>
<path d="M86 66C106.4 85.2 120.5 83.3333 125 80" stroke="#D9D9D9" stroke-width="5"/>
</svg>
