<svg xmlns="http://www.w3.org/2000/svg" xmlns:xlink="http://www.w3.org/1999/xlink" width="500" zoomAndPan="magnify" viewBox="0 0 375 374.999991" height="500" preserveAspectRatio="xMidYMid meet" version="1.0"><defs><clipPath id="160eb33049"><path d="M 44.4375 37.5 L 329 37.5 L 329 337.5 L 44.4375 337.5 Z M 44.4375 37.5 " clip-rule="nonzero"/></clipPath></defs><g clip-path="url(#160eb33049)"><path fill="#34344c" d="M 181.214844 164.308594 C 184.703125 169.289062 194.289062 168.078125 202.59375 161.675781 C 210.878906 155.355469 214.695312 146.398438 211.152344 141.585938 C 207.609375 136.746094 198.089844 137.75 189.863281 143.898438 C 181.609375 150.125 177.726562 159.300781 181.214844 164.308594 Z M 198.914062 109.585938 C 190.179688 107.941406 185.484375 109.445312 177.652344 117.210938 C 169.773438 125.09375 168.191406 135.496094 174.160156 140.300781 C 180.140625 145.058594 191.445312 142.304688 199.359375 134.292969 C 207.234375 126.402344 206.203125 114.605469 198.914062 109.585938 Z M 132.988281 94.867188 C 126.816406 93.847656 120.167969 101.003906 118.109375 110.953125 C 116.023438 120.996094 119.351562 129.929688 125.566406 130.808594 C 131.789062 131.667969 138.515625 124.25 140.558594 114.359375 C 142.574219 104.546875 139.171875 95.867188 132.988281 94.867188 Z M 103.046875 145.953125 C 97.011719 155.617188 101.574219 169.738281 113.324219 177.230469 C 119.46875 181.074219 126.355469 182.316406 132.40625 181.246094 C 134.179688 187.070312 138.40625 192.578125 144.601562 196.230469 C 156.53125 203.117188 171.183594 200.582031 177.238281 190.839844 C 182.484375 182.457031 173.878906 160.59375 173.878906 160.59375 C 173.878906 160.59375 174.980469 138.808594 163.480469 132.003906 C 152.03125 125.046875 132.355469 135.597656 132.355469 135.597656 C 132.355469 135.597656 108.265625 137.648438 103.046875 145.953125 Z M 145.242188 101.957031 C 141.328125 112.285156 143.886719 123.308594 151.007812 126.414062 C 158.140625 129.472656 167.125 123.507812 171.019531 113.253906 C 174.875 103.121094 174.226562 98.445312 168.804688 91.679688 C 160.785156 87.582031 149.125 91.753906 145.242188 101.957031 Z M 325.03125 248.921875 C 324.023438 245.9375 322.847656 243.117188 321.570312 240.46875 C 315.550781 228.078125 307.324219 219.414062 302.3125 214.859375 C 305.195312 208.554688 305.355469 201.0625 302.101562 194.328125 C 296.300781 182.324219 281.851562 177.285156 269.828125 183.082031 C 257.804688 188.875 252.761719 203.304688 258.5625 215.3125 C 264.367188 227.320312 278.816406 232.355469 290.839844 226.5625 C 292.164062 225.921875 293.402344 225.171875 294.550781 224.335938 C 298.832031 228.324219 305.734375 235.753906 310.546875 245.78125 C 311.625 248.003906 312.601562 250.355469 313.433594 252.828125 C 318.363281 267.476562 317.242188 281.25 312.085938 292.914062 C 306.921875 304.570312 297.621094 314.070312 286.019531 319.660156 C 278.832031 323.125 270.769531 325.089844 262.230469 325.144531 C 250.847656 325.199219 242.078125 322.207031 234.949219 317.257812 C 227.839844 312.300781 222.339844 305.21875 218.289062 296.839844 C 213.414062 286.769531 210.726562 274.875 209.933594 263.320312 C 208.609375 244.199219 205.445312 233.335938 203.53125 228.300781 C 206.675781 223.023438 214.4375 209.765625 222.476562 194.320312 C 227.683594 184.308594 233.003906 173.394531 237.273438 163.058594 C 241.53125 152.691406 244.785156 143.039062 245.738281 134.867188 C 248.253906 112.582031 244.632812 91.921875 236.621094 75.328125 C 231.183594 64.078125 223.707031 54.671875 214.632812 48.019531 C 205.582031 41.371094 194.855469 37.523438 183.429688 37.597656 C 175.265625 37.640625 167.320312 39.65625 159.929688 43.222656 C 153.691406 46.238281 147.839844 50.339844 142.453125 55.3125 C 141.011719 54.886719 139.519531 55.167969 138.578125 56.199219 L 125.1875 70.859375 C 123.777344 72.402344 124.140625 75.023438 126 76.714844 L 132.726562 82.84375 C 134.585938 84.539062 137.230469 84.660156 138.640625 83.117188 L 152.03125 68.457031 C 153.257812 67.113281 153.140625 64.949219 151.863281 63.296875 C 156.132812 59.511719 160.632812 56.445312 165.25 54.230469 C 171.199219 51.367188 177.308594 49.855469 183.5 49.820312 C 192.136719 49.78125 200.171875 52.597656 207.394531 57.875 C 214.597656 63.148438 220.910156 70.9375 225.597656 80.640625 C 232.515625 94.941406 235.855469 113.355469 233.578125 133.496094 C 232.925781 139.492188 230.027344 148.601562 225.957031 158.398438 C 219.867188 173.152344 211.25 189.734375 204.183594 202.542969 C 200.644531 208.953125 197.496094 214.425781 195.230469 218.292969 C 194.65625 219.28125 194.132812 220.164062 193.679688 220.925781 C 185.847656 219.746094 167.589844 216.84375 148.75 212.792969 C 139.023438 210.703125 129.136719 208.304688 120.511719 205.710938 C 111.902344 203.136719 104.492188 200.285156 100.101562 197.675781 C 82.804688 187.484375 70.511719 173.664062 63.632812 159.414062 C 58.90625 149.640625 56.742188 139.6875 57.125 130.601562 C 57.515625 121.5 60.378906 113.296875 65.808594 106.539062 C 69.6875 101.722656 74.675781 97.882812 80.621094 95.015625 L 80.703125 94.976562 C 85.347656 92.738281 90.59375 91.125 96.269531 90.152344 C 96.785156 92.152344 98.390625 93.5625 100.191406 93.441406 L 120.015625 92.09375 C 122.101562 91.953125 123.652344 89.804688 123.480469 87.300781 L 122.863281 78.226562 C 122.691406 75.722656 120.863281 73.808594 118.777344 73.949219 L 98.953125 75.296875 C 97.539062 75.390625 96.371094 76.414062 95.820312 77.839844 C 88.507812 78.949219 81.597656 80.984375 75.300781 84.007812 C 67.90625 87.566406 61.378906 92.523438 56.269531 98.882812 C 49.066406 107.816406 45.363281 118.722656 44.898438 130.089844 C 44.425781 141.472656 47.117188 153.355469 52.609375 164.726562 C 60.621094 181.296875 74.605469 196.835938 93.882812 208.199219 C 100.726562 212.203125 110.207031 215.511719 120.941406 218.570312 C 147.371094 226.042969 181.132812 231.402344 192.25 233.070312 C 193.730469 237.117188 196.511719 246.714844 197.722656 264.167969 C 198.621094 276.992188 201.542969 290.292969 207.261719 302.152344 C 212.015625 311.988281 218.757812 320.871094 227.941406 327.277344 C 237.109375 333.699219 248.683594 337.476562 262.3125 337.367188 C 272.6875 337.300781 282.554688 334.902344 291.339844 330.667969 C 305.511719 323.835938 316.902344 312.234375 323.277344 297.863281 C 329.664062 283.511719 330.933594 266.351562 325.03125 248.921875 Z M 286.316406 217.203125 C 279.46875 220.503906 271.238281 217.636719 267.933594 210.796875 C 264.628906 203.957031 267.5 195.738281 274.347656 192.4375 C 281.195312 189.136719 289.429688 192.003906 292.734375 198.84375 C 296.039062 205.683594 293.164062 213.902344 286.316406 217.203125 Z M 275.191406 194.246094 C 269.558594 196.960938 267.199219 203.71875 269.914062 209.339844 C 272.632812 214.964844 279.398438 217.324219 285.03125 214.609375 C 290.660156 211.898438 293.023438 205.136719 290.308594 199.515625 C 287.589844 193.890625 280.820312 191.53125 275.191406 194.246094 Z M 275.191406 194.246094 " fill-opacity="1" fill-rule="nonzero"/></g></svg>