<svg xmlns="http://www.w3.org/2000/svg" xmlns:xlink="http://www.w3.org/1999/xlink" width="500" zoomAndPan="magnify" viewBox="0 0 375 374.999991" height="500" preserveAspectRatio="xMidYMid meet" version="1.0"><defs><clipPath id="aae27f5f0e"><path d="M 37.5 42.1875 L 337.5 42.1875 L 337.5 333.1875 L 37.5 333.1875 Z M 37.5 42.1875 " clip-rule="nonzero"/></clipPath></defs><g clip-path="url(#aae27f5f0e)"><path fill="#34344c" d="M 314.0625 56.269531 L 285.9375 56.269531 C 285.9375 52.460938 284.453125 48.917969 281.84375 46.378906 C 279.21875 43.671875 275.679688 42.1875 271.875 42.1875 C 264.121094 42.1875 257.8125 48.503906 257.8125 56.269531 L 201.5625 56.269531 C 201.5625 52.460938 200.078125 48.917969 197.46875 46.378906 C 194.84375 43.671875 191.304688 42.1875 187.5 42.1875 C 179.746094 42.1875 173.4375 48.503906 173.4375 56.269531 L 117.1875 56.269531 C 117.1875 52.460938 115.703125 48.917969 113.09375 46.378906 C 110.46875 43.671875 106.929688 42.1875 103.125 42.1875 C 95.371094 42.1875 89.0625 48.503906 89.0625 56.269531 L 60.9375 56.269531 C 48.015625 56.269531 37.5 66.796875 37.5 79.734375 L 37.5 309.71875 C 37.5 322.660156 48.015625 333.1875 60.9375 333.1875 L 276.5625 333.1875 C 277.734375 333.1875 278.863281 332.746094 279.730469 331.953125 L 335.980469 280.324219 C 336.949219 279.4375 337.5 278.179688 337.5 276.863281 L 337.5 79.734375 C 337.5 66.796875 326.984375 56.269531 314.0625 56.269531 Z M 285.667969 87.101562 C 285.765625 87.773438 285.9375 88.433594 285.9375 89.121094 C 285.9375 96.886719 279.628906 103.203125 271.875 103.203125 C 264.121094 103.203125 257.8125 96.886719 257.8125 89.121094 C 257.8125 88.445312 257.980469 87.800781 258.078125 87.140625 C 258.605469 89.894531 259.929688 92.398438 261.90625 94.320312 C 264.53125 97.023438 268.070312 98.511719 271.875 98.511719 C 278.714844 98.511719 284.417969 93.589844 285.667969 87.101562 Z M 201.292969 87.101562 C 201.390625 87.773438 201.5625 88.433594 201.5625 89.121094 C 201.5625 96.886719 195.253906 103.203125 187.5 103.203125 C 179.746094 103.203125 173.4375 96.886719 173.4375 89.121094 C 173.4375 88.445312 173.605469 87.800781 173.703125 87.140625 C 174.230469 89.894531 175.554688 92.398438 177.53125 94.320312 C 180.15625 97.023438 183.695312 98.511719 187.5 98.511719 C 194.339844 98.511719 200.042969 93.589844 201.292969 87.101562 Z M 116.917969 87.101562 C 117.019531 87.773438 117.1875 88.433594 117.1875 89.121094 C 117.1875 96.886719 110.878906 103.203125 103.125 103.203125 C 95.371094 103.203125 89.0625 96.886719 89.0625 89.121094 C 89.0625 88.445312 89.230469 87.800781 89.328125 87.140625 C 89.855469 89.894531 91.179688 92.398438 93.15625 94.320312 C 95.78125 97.023438 99.320312 98.511719 103.125 98.511719 C 109.964844 98.511719 115.667969 93.589844 116.917969 87.101562 Z M 267.1875 56.269531 C 267.1875 53.679688 269.289062 51.574219 271.875 51.574219 C 273.125 51.574219 274.28125 52.054688 275.214844 53.015625 C 276.082031 53.855469 276.5625 55.015625 276.5625 56.269531 L 276.5625 84.429688 C 276.5625 87.019531 274.460938 89.121094 271.875 89.121094 C 270.625 89.121094 269.46875 88.640625 268.535156 87.683594 C 267.667969 86.839844 267.1875 85.679688 267.1875 84.429688 Z M 182.8125 56.269531 C 182.8125 53.679688 184.914062 51.574219 187.5 51.574219 C 188.75 51.574219 189.90625 52.054688 190.839844 53.015625 C 191.707031 53.855469 192.1875 55.015625 192.1875 56.269531 L 192.1875 84.429688 C 192.1875 87.019531 190.085938 89.121094 187.5 89.121094 C 186.25 89.121094 185.09375 88.640625 184.160156 87.683594 C 183.292969 86.839844 182.8125 85.679688 182.8125 84.429688 Z M 98.4375 56.269531 C 98.4375 53.679688 100.539062 51.574219 103.125 51.574219 C 104.375 51.574219 105.53125 52.054688 106.464844 53.015625 C 107.332031 53.855469 107.8125 55.015625 107.8125 56.269531 L 107.8125 84.429688 C 107.8125 87.019531 105.710938 89.121094 103.125 89.121094 C 101.875 89.121094 100.71875 88.640625 99.785156 87.683594 C 98.917969 86.839844 98.4375 85.679688 98.4375 84.429688 Z M 46.875 309.71875 L 46.875 126.671875 L 328.125 126.671875 L 328.125 272.171875 L 295.3125 272.171875 C 282.390625 272.171875 271.875 282.699219 271.875 295.640625 L 271.875 323.800781 L 60.9375 323.800781 C 53.183594 323.800781 46.875 317.484375 46.875 309.71875 Z M 46.875 309.71875 " fill-opacity="1" fill-rule="nonzero"/></g><path fill="#34344c" d="M 60.9375 154.832031 C 63.527344 154.832031 65.625 152.734375 65.625 150.140625 L 65.625 140.753906 C 65.625 138.15625 63.527344 136.058594 60.9375 136.058594 C 58.347656 136.058594 56.25 138.15625 56.25 140.753906 L 56.25 150.140625 C 56.25 152.734375 58.347656 154.832031 60.9375 154.832031 Z M 60.9375 154.832031 " fill-opacity="1" fill-rule="nonzero"/><path fill="#34344c" d="M 60.9375 192.382812 C 63.527344 192.382812 65.625 190.28125 65.625 187.6875 L 65.625 164.21875 C 65.625 161.625 63.527344 159.527344 60.9375 159.527344 C 58.347656 159.527344 56.25 161.625 56.25 164.21875 L 56.25 187.6875 C 56.25 190.28125 58.347656 192.382812 60.9375 192.382812 Z M 60.9375 192.382812 " fill-opacity="1" fill-rule="nonzero"/><path fill="#34344c" d="M 75 305.027344 L 70.3125 305.027344 C 67.726562 305.027344 65.625 302.921875 65.625 300.332031 L 65.625 290.945312 C 65.625 288.351562 63.527344 286.253906 60.9375 286.253906 C 58.347656 286.253906 56.25 288.351562 56.25 290.945312 L 56.25 300.332031 C 56.25 308.097656 62.558594 314.414062 70.3125 314.414062 L 75 314.414062 C 77.589844 314.414062 79.6875 312.3125 79.6875 309.71875 C 79.6875 307.125 77.589844 305.027344 75 305.027344 Z M 75 305.027344 " fill-opacity="1" fill-rule="nonzero"/><path fill="#34344c" d="M 295.3125 150.140625 L 314.0625 150.140625 C 316.652344 150.140625 318.75 148.039062 318.75 145.445312 C 318.75 142.851562 316.652344 140.753906 314.0625 140.753906 L 295.3125 140.753906 C 292.722656 140.753906 290.625 142.851562 290.625 145.445312 C 290.625 148.039062 292.722656 150.140625 295.3125 150.140625 Z M 295.3125 150.140625 " fill-opacity="1" fill-rule="nonzero"/><path fill="#34344c" d="M 285.9375 168.914062 L 314.0625 168.914062 C 316.652344 168.914062 318.75 166.8125 318.75 164.21875 C 318.75 161.625 316.652344 159.527344 314.0625 159.527344 L 285.9375 159.527344 C 283.347656 159.527344 281.25 161.625 281.25 164.21875 C 281.25 166.8125 283.347656 168.914062 285.9375 168.914062 Z M 285.9375 168.914062 " fill-opacity="1" fill-rule="nonzero"/><path fill="#34344c" d="M 281.25 258.089844 L 281.25 182.992188 C 281.25 170.054688 270.734375 159.527344 257.8125 159.527344 L 239.0625 159.527344 L 239.0625 150.140625 C 239.0625 142.375 232.753906 136.058594 225 136.058594 L 187.5 136.058594 C 179.746094 136.058594 173.4375 142.375 173.4375 150.140625 L 173.4375 159.527344 L 154.6875 159.527344 C 141.765625 159.527344 131.25 170.054688 131.25 182.992188 L 131.25 258.089844 C 131.25 271.03125 141.765625 281.558594 154.6875 281.558594 L 257.8125 281.558594 C 270.734375 281.558594 281.25 271.03125 281.25 258.089844 Z M 234.375 211.15625 C 236.953125 211.15625 239.296875 212.1875 240.984375 213.925781 C 242.71875 215.613281 243.75 217.960938 243.75 220.542969 C 243.75 225.707031 239.53125 229.929688 234.375 229.929688 L 215.625 229.929688 L 215.625 248.703125 C 215.625 251.285156 214.59375 253.632812 212.859375 255.320312 C 211.171875 257.058594 208.828125 258.089844 206.25 258.089844 C 201.09375 258.089844 196.875 253.867188 196.875 248.703125 L 196.875 229.929688 L 178.125 229.929688 C 175.546875 229.929688 173.203125 228.898438 171.515625 227.160156 C 169.78125 225.46875 168.75 223.125 168.75 220.542969 C 168.75 215.378906 172.96875 211.15625 178.125 211.15625 L 196.875 211.15625 L 196.875 192.382812 C 196.875 189.800781 197.90625 187.453125 199.640625 185.761719 C 201.328125 184.027344 203.671875 182.992188 206.25 182.992188 C 211.40625 182.992188 215.625 187.21875 215.625 192.382812 L 215.625 211.15625 Z M 253.125 182.992188 C 253.125 185.574219 251.015625 187.6875 248.4375 187.6875 C 245.859375 187.6875 243.75 185.574219 243.75 182.992188 L 243.75 168.914062 L 253.125 168.914062 Z M 168.75 182.992188 C 168.75 185.574219 166.640625 187.6875 164.0625 187.6875 C 161.484375 187.6875 159.375 185.574219 159.375 182.992188 L 159.375 168.914062 L 168.75 168.914062 Z M 182.8125 150.140625 C 182.8125 147.550781 184.914062 145.445312 187.5 145.445312 L 225 145.445312 C 227.585938 145.445312 229.6875 147.550781 229.6875 150.140625 L 229.6875 159.527344 L 182.8125 159.527344 Z M 182.8125 150.140625 " fill-opacity="1" fill-rule="nonzero"/><path fill="#34344c" d="M 107.8125 140.753906 L 89.0625 140.753906 C 81.308594 140.753906 75 147.066406 75 154.832031 L 75 173.605469 C 75 181.371094 81.308594 187.6875 89.0625 187.6875 L 107.8125 187.6875 C 115.566406 187.6875 121.875 181.371094 121.875 173.605469 L 121.875 154.832031 C 121.875 147.066406 115.566406 140.753906 107.8125 140.753906 Z M 107.8125 140.753906 " fill-opacity="1" fill-rule="nonzero"/><path fill="#34344c" d="M 107.8125 197.074219 L 89.0625 197.074219 C 81.308594 197.074219 75 203.390625 75 211.15625 L 75 229.929688 C 75 237.695312 81.308594 244.011719 89.0625 244.011719 L 107.8125 244.011719 C 115.566406 244.011719 121.875 237.695312 121.875 229.929688 L 121.875 211.15625 C 121.875 203.390625 115.566406 197.074219 107.8125 197.074219 Z M 107.8125 197.074219 " fill-opacity="1" fill-rule="nonzero"/><path fill="#34344c" d="M 107.8125 253.398438 L 89.0625 253.398438 C 81.308594 253.398438 75 259.714844 75 267.476562 L 75 286.253906 C 75 294.015625 81.308594 300.332031 89.0625 300.332031 L 107.8125 300.332031 C 115.566406 300.332031 121.875 294.015625 121.875 286.253906 L 121.875 267.476562 C 121.875 259.714844 115.566406 253.398438 107.8125 253.398438 Z M 107.8125 253.398438 " fill-opacity="1" fill-rule="nonzero"/></svg>