<svg xmlns="http://www.w3.org/2000/svg" xmlns:xlink="http://www.w3.org/1999/xlink" width="500" zoomAndPan="magnify" viewBox="0 0 375 374.999991" height="500" preserveAspectRatio="xMidYMid meet" version="1.0"><defs><clipPath id="477b2b1cde"><path d="M 186 40 L 347.425781 40 L 347.425781 88 L 186 88 Z M 186 40 " clip-rule="nonzero"/></clipPath><clipPath id="5ff2ed7a31"><path d="M 110 37.5 L 163 37.5 L 163 115 L 110 115 Z M 110 37.5 " clip-rule="nonzero"/></clipPath><clipPath id="a34359a657"><path d="M 27.925781 55 L 237 55 L 237 337.5 L 27.925781 337.5 Z M 27.925781 55 " clip-rule="nonzero"/></clipPath></defs><g clip-path="url(#477b2b1cde)"><path fill="#34344c" d="M 347.113281 53.289062 C 346.84375 50.46875 344.351562 48.433594 341.523438 48.679688 L 284.65625 54.15625 C 284.65625 54.15625 284.652344 54.15625 284.652344 54.15625 L 283.339844 40.53125 L 186.648438 49.960938 C 192.03125 55.460938 196.039062 66.6875 199.394531 85.042969 C 199.527344 85.769531 199.648438 86.496094 199.757812 87.222656 L 220.273438 85.222656 L 218.328125 64.328125 C 218.066406 61.503906 220.140625 59.015625 222.960938 58.746094 C 225.785156 58.648438 228.273438 60.5625 228.539062 63.371094 L 230.484375 84.226562 L 246.324219 82.679688 L 244.367188 61.671875 C 244.109375 58.847656 246.183594 56.359375 249 56.089844 C 251.875 55.96875 254.320312 57.890625 254.582031 60.714844 L 256.539062 81.683594 L 287.023438 78.710938 L 285.636719 64.359375 L 342.503906 58.878906 C 345.324219 58.601562 347.386719 56.101562 347.113281 53.289062 " fill-opacity="1" fill-rule="nonzero"/></g><g clip-path="url(#5ff2ed7a31)"><path fill="#34344c" d="M 112.003906 76.007812 C 112.003906 76.011719 112.003906 76.023438 112.003906 76.027344 C 112.003906 76.050781 112.007812 76.066406 112.011719 76.085938 L 113.890625 95.566406 C 114.144531 98.214844 116.375 100.203125 118.988281 100.203125 C 119.144531 100.203125 119.3125 100.191406 119.480469 100.179688 C 122.300781 99.902344 124.363281 97.402344 124.09375 94.589844 L 122.71875 80.320312 L 134.679688 79.261719 L 137.617188 109.683594 C 137.871094 112.339844 140.105469 114.316406 142.714844 114.316406 C 142.875 114.316406 143.039062 114.308594 143.207031 114.296875 C 146.03125 114.019531 148.089844 111.519531 147.820312 108.707031 L 146.277344 92.71875 L 156.800781 91.414062 C 156.929688 88.640625 157.019531 85.949219 157.113281 83.386719 C 157.574219 70.003906 157.964844 59.03125 162.566406 52.3125 L 142.59375 54.535156 L 141.410156 42.277344 C 141.132812 39.453125 138.664062 37.460938 135.820312 37.664062 C 133 37.941406 130.9375 40.441406 131.207031 43.253906 L 133.699219 69.070312 L 121.734375 70.132812 L 120.410156 56.402344 C 120.136719 53.589844 117.648438 51.582031 114.816406 51.789062 C 112 52.070312 109.933594 54.570312 110.207031 57.378906 L 112.003906 76.007812 " fill-opacity="1" fill-rule="nonzero"/></g><g clip-path="url(#a34359a657)"><path fill="#34344c" d="M 219.285156 204.054688 C 218.476562 206.042969 216.558594 207.242188 214.539062 207.242188 C 213.894531 207.242188 213.238281 207.121094 212.601562 206.867188 C 209.980469 205.796875 208.71875 202.808594 209.792969 200.1875 L 221.273438 172.066406 C 221.980469 170.339844 222.53125 168.691406 222.949219 167.113281 C 222.992188 166.808594 223.070312 166.507812 223.167969 166.214844 C 226.03125 154.101562 220.882812 146.429688 216.503906 142.324219 L 202.109375 178.835938 C 201.316406 180.84375 199.378906 182.082031 197.339844 182.082031 C 196.707031 182.082031 196.074219 181.96875 195.457031 181.726562 C 192.828125 180.691406 191.527344 177.710938 192.566406 175.078125 L 207.457031 137.300781 C 209.722656 131.554688 208.347656 125.03125 203.957031 120.6875 L 198.488281 115.265625 C 197.597656 118.925781 196.433594 122.535156 194.980469 126.066406 L 180.792969 160.476562 C 179.71875 163.097656 176.726562 164.351562 174.101562 163.265625 C 171.480469 162.183594 170.234375 159.195312 171.3125 156.585938 L 185.5 122.175781 C 190.144531 110.90625 191.457031 98.703125 189.304688 86.890625 C 183.984375 57.746094 178.292969 56.179688 177.660156 56.101562 C 173.664062 55.527344 172.359375 56.703125 171.929688 57.070312 C 168.179688 60.238281 167.78125 71.664062 167.355469 83.742188 C 167.113281 90.890625 168.515625 99.34375 165.890625 107.484375 C 160.90625 122.910156 148.8125 133.492188 132.023438 144.328125 C 116.21875 154.523438 102.679688 162.585938 93.601562 159.621094 C 85.773438 157.097656 83.734375 150.050781 81.925781 141.851562 C 80.472656 135.25 76.964844 124.996094 86.90625 111.78125 C 97.605469 97.554688 104.785156 88.148438 100.789062 78.367188 C 100.179688 76.878906 98.976562 76.324219 98.3125 76.132812 C 97.679688 75.957031 96.367188 75.757812 95.050781 76.679688 L 52.25 106.449219 C 49.277344 108.527344 47.410156 111.78125 47.109375 115.394531 L 41.132812 186.828125 L 56.476562 240.71875 C 56.988281 242.511719 56.488281 244.433594 55.175781 245.742188 L 27.960938 272.925781 L 105.265625 337.433594 L 228.328125 214.5 C 232.246094 210.601562 234.882812 201.835938 235.816406 196.6875 C 237.351562 188.265625 232.003906 182.265625 229.84375 178.195312 L 219.285156 204.054688 " fill-opacity="1" fill-rule="nonzero"/></g></svg>