<svg xmlns="http://www.w3.org/2000/svg" xmlns:xlink="http://www.w3.org/1999/xlink" width="500" zoomAndPan="magnify" viewBox="0 0 375 374.999991" height="500" preserveAspectRatio="xMidYMid meet" version="1.0"><defs><g/><clipPath id="31813f2841"><path d="M 141.199219 99.191406 L 194.777344 99.191406 L 194.777344 136.222656 L 141.199219 136.222656 Z M 141.199219 99.191406 " clip-rule="nonzero"/></clipPath><clipPath id="8a8560fb4b"><path d="M 144.308594 113.734375 C 159.789062 104.074219 164.089844 102.222656 167.332031 101.097656 C 169.714844 100.304688 171.566406 99.839844 173.683594 99.578125 C 175.667969 99.3125 177.652344 99.246094 179.640625 99.378906 C 181.625 99.511719 183.808594 99.710938 185.660156 100.4375 C 187.578125 101.230469 189.695312 102.488281 191.085938 104.074219 C 192.476562 105.597656 193.402344 107.382812 193.929688 109.765625 C 194.660156 113.207031 193.929688 118.964844 193.269531 122.933594 C 192.738281 126.308594 191.613281 130.078125 190.6875 132.0625 C 190.226562 133.1875 189.828125 133.851562 189.167969 134.445312 C 188.503906 135.109375 187.578125 135.570312 186.652344 135.835938 C 185.792969 136.101562 184.734375 136.167969 183.808594 135.902344 C 182.683594 135.570312 181.09375 134.710938 180.300781 133.652344 C 179.507812 132.59375 179.109375 130.742188 179.109375 129.550781 C 179.109375 128.558594 179.640625 127.632812 180.035156 126.902344 C 180.367188 126.308594 180.765625 125.84375 181.359375 125.449219 C 182.21875 124.851562 183.742188 124.125 184.933594 124.125 C 186.125 124.125 187.578125 124.585938 188.570312 125.316406 C 189.5625 126.042969 190.359375 127.433594 190.753906 128.359375 C 191.019531 129.019531 191.085938 129.550781 191.019531 130.277344 C 190.886719 131.269531 190.425781 132.925781 189.695312 133.851562 C 188.902344 134.777344 187.445312 135.570312 186.453125 135.902344 C 185.792969 136.101562 185.195312 136.101562 184.535156 136.035156 C 183.941406 135.96875 183.34375 135.902344 182.683594 135.570312 C 181.757812 135.109375 180.433594 134.050781 179.835938 132.992188 C 179.242188 131.933594 179.109375 130.277344 179.175781 129.285156 C 179.242188 128.558594 179.507812 128.027344 179.773438 127.433594 C 180.035156 126.835938 180.367188 126.308594 180.894531 125.84375 C 181.691406 125.183594 183.078125 124.324219 184.269531 124.191406 C 185.460938 124.058594 186.984375 124.324219 188.042969 124.917969 C 189.101562 125.515625 190.09375 126.835938 190.554688 127.761719 C 190.886719 128.425781 191.019531 128.953125 191.019531 129.683594 C 191.019531 130.675781 190.753906 132.328125 190.09375 133.320312 C 189.367188 134.378906 187.910156 135.503906 186.652344 135.835938 C 185.394531 136.167969 183.675781 136.035156 182.484375 135.4375 C 181.292969 134.84375 180.101562 133.453125 179.574219 132.394531 C 179.109375 131.46875 179.042969 130.808594 179.109375 129.550781 C 179.175781 126.96875 181.691406 121.082031 181.824219 117.773438 C 181.953125 115.390625 182.152344 112.613281 180.960938 111.554688 C 179.773438 110.492188 176.59375 111.222656 174.542969 111.488281 C 172.558594 111.75 170.640625 112.480469 168.722656 113.207031 C 166.738281 113.933594 165.082031 114.597656 162.832031 115.855469 C 159.457031 117.707031 153.238281 122.601562 150.59375 123.859375 C 149.46875 124.390625 148.9375 124.71875 147.945312 124.71875 C 146.753906 124.71875 144.902344 124.324219 143.84375 123.527344 C 142.785156 122.734375 141.925781 121.148438 141.59375 119.957031 C 141.328125 118.964844 141.394531 118.035156 141.726562 117.109375 C 142.125 115.984375 144.308594 113.734375 144.308594 113.734375 " clip-rule="nonzero"/></clipPath><clipPath id="0b6ce11c93"><path d="M 202.839844 164 L 237.691406 164 L 237.691406 180 L 202.839844 180 Z M 202.839844 164 " clip-rule="nonzero"/></clipPath><clipPath id="bea3f5ecda"><path d="M 207.296875 164.882812 C 218.542969 163.359375 223.441406 164.089844 227.011719 165.214844 C 230.253906 166.273438 233.960938 167.925781 235.679688 169.644531 C 236.804688 170.769531 237.335938 172.226562 237.535156 173.417969 C 237.667969 174.410156 237.535156 175.335938 237.070312 176.261719 C 236.542969 177.320312 235.21875 178.710938 234.160156 179.304688 C 233.300781 179.769531 232.308594 179.902344 231.378906 179.902344 C 230.453125 179.902344 229.261719 179.902344 228.601562 179.109375 C 227.410156 177.652344 226.550781 171.300781 227.542969 169.578125 C 228.136719 168.453125 229.792969 168.125 230.984375 167.992188 C 232.175781 167.859375 233.761719 168.390625 234.6875 168.851562 C 235.351562 169.183594 235.746094 169.644531 236.144531 170.109375 C 236.542969 170.574219 236.9375 171.035156 237.136719 171.761719 C 237.402344 172.753906 237.667969 174.410156 237.335938 175.535156 C 237.003906 176.726562 236.144531 177.984375 235.152344 178.710938 C 234.160156 179.4375 232.703125 179.902344 231.511719 179.902344 C 230.320312 179.902344 228.800781 179.175781 227.941406 178.644531 C 227.34375 178.246094 226.949219 177.917969 226.617188 177.253906 C 226.085938 176.328125 225.558594 174.742188 225.625 173.550781 C 225.691406 172.359375 226.484375 170.902344 227.078125 170.042969 C 227.476562 169.449219 227.875 169.117188 228.535156 168.785156 C 229.460938 168.324219 231.25 167.925781 232.242188 167.992188 C 232.96875 167.992188 233.433594 168.191406 234.09375 168.519531 C 235.019531 169.050781 236.34375 170.109375 236.871094 171.167969 C 237.402344 172.226562 237.535156 173.878906 237.46875 174.9375 C 237.402344 175.667969 237.070312 176.792969 236.804688 176.792969 C 236.277344 176.792969 234.09375 169.050781 234.554688 168.785156 C 234.820312 168.652344 236.078125 169.976562 236.609375 170.769531 C 237.070312 171.566406 237.535156 172.425781 237.535156 173.417969 C 237.535156 174.609375 237.136719 176.460938 236.34375 177.519531 C 235.550781 178.578125 233.960938 179.4375 232.769531 179.769531 C 231.777344 180.035156 230.984375 179.902344 229.925781 179.636719 C 228.335938 179.238281 226.21875 177.585938 224.234375 176.859375 C 222.316406 176.195312 220.464844 175.601562 218.214844 175.46875 C 215.5 175.335938 211.265625 176.660156 209.082031 176.527344 C 207.890625 176.460938 207.164062 176.394531 206.304688 175.933594 C 205.246094 175.335938 203.921875 173.945312 203.390625 172.886719 C 202.929688 171.960938 202.863281 171.035156 202.996094 170.042969 C 203.195312 168.851562 204.054688 167.132812 204.847656 166.273438 C 205.511719 165.542969 207.296875 164.882812 207.296875 164.882812 " clip-rule="nonzero"/></clipPath><clipPath id="9d76c08981"><path d="M 161.054688 157.058594 L 196.527344 157.058594 L 196.527344 174.425781 L 161.054688 174.425781 Z M 161.054688 157.058594 " clip-rule="nonzero"/></clipPath><clipPath id="e5b03e41f1"><path d="M 165.28125 159.191406 C 174.542969 157.140625 176.464844 157.074219 178.515625 157.273438 C 180.566406 157.472656 182.550781 157.605469 184.800781 158.464844 C 187.777344 159.589844 192.542969 162.035156 194.394531 164.023438 C 195.519531 165.214844 196.046875 166.601562 196.246094 167.792969 C 196.378906 168.785156 196.246094 169.710938 195.785156 170.636719 C 195.253906 171.695312 193.929688 173.085938 192.871094 173.683594 C 192.011719 174.144531 190.953125 174.277344 190.027344 174.210938 C 189.101562 174.144531 188.109375 174.011719 187.3125 173.484375 C 186.386719 172.886719 185.328125 171.761719 184.867188 170.703125 C 184.402344 169.578125 184.203125 168.125 184.46875 166.933594 C 184.734375 165.742188 185.792969 164.417969 186.519531 163.691406 C 187.050781 163.160156 187.445312 162.898438 188.175781 162.699219 C 189.167969 162.433594 190.953125 162.367188 191.945312 162.566406 C 192.671875 162.699219 193.136719 162.964844 193.730469 163.425781 C 194.527344 164.089844 195.585938 165.34375 195.980469 166.46875 C 196.378906 167.59375 196.179688 169.316406 195.914062 170.308594 C 195.71875 171.035156 195.453125 171.433594 194.988281 171.960938 C 194.328125 172.691406 193.003906 173.75 191.8125 174.078125 C 190.621094 174.410156 189.101562 174.277344 187.976562 173.8125 C 186.851562 173.351562 185.726562 172.160156 185.132812 171.300781 C 184.734375 170.703125 184.535156 170.242188 184.46875 169.515625 C 184.335938 168.519531 184.402344 166.800781 184.933594 165.742188 C 185.460938 164.617188 186.71875 163.492188 187.578125 162.964844 C 188.175781 162.566406 188.769531 162.5 189.433594 162.433594 C 190.027344 162.367188 190.6875 162.234375 191.351562 162.433594 C 192.277344 162.632812 193.601562 163.226562 194.394531 164.023438 C 195.253906 164.949219 196.113281 166.46875 196.246094 167.792969 C 196.378906 169.117188 195.851562 170.835938 195.054688 171.894531 C 194.261719 172.953125 192.804688 173.878906 191.484375 174.144531 C 190.226562 174.410156 188.703125 174.011719 187.3125 173.484375 C 185.660156 172.886719 184.136719 171.035156 182.285156 170.308594 C 180.433594 169.578125 178.449219 169.183594 176.265625 169.183594 C 173.617188 169.183594 169.648438 170.769531 167.53125 170.769531 C 166.339844 170.769531 165.546875 170.703125 164.6875 170.308594 C 163.824219 169.910156 163.03125 169.382812 162.4375 168.585938 C 161.773438 167.59375 161.113281 165.875 161.179688 164.550781 C 161.246094 163.226562 162.039062 161.640625 162.832031 160.714844 C 163.496094 159.984375 165.28125 159.191406 165.28125 159.191406 " clip-rule="nonzero"/></clipPath><clipPath id="4478a0dcce"><path d="M 101 78.128906 L 226.84375 78.128906 L 226.84375 188 L 101 188 Z M 101 78.128906 " clip-rule="nonzero"/></clipPath><clipPath id="0bb5c06709"><path d="M 112.613281 184.269531 C 104.671875 168.058594 103.550781 164.550781 102.753906 160.117188 C 101.761719 154.691406 101.234375 146.089844 101.429688 141.65625 C 101.5625 139.144531 101.828125 138.019531 102.359375 135.769531 C 103.085938 132.460938 104.277344 127.695312 105.863281 123.925781 C 107.453125 120.089844 109.503906 116.382812 111.753906 112.941406 C 114.003906 109.5 116.515625 106.195312 119.230469 103.148438 C 121.941406 100.105469 124.921875 97.328125 128.097656 94.8125 C 131.339844 92.234375 134.910156 89.917969 138.484375 87.867188 C 141.992188 85.878906 145.234375 84.226562 149.402344 82.769531 C 154.628906 80.984375 162.039062 79.394531 167.53125 78.734375 C 172.03125 78.207031 175.800781 78.273438 179.96875 78.535156 C 184.203125 78.800781 188.570312 79.394531 192.671875 80.324219 C 196.777344 81.25 201.40625 82.835938 204.582031 84.226562 C 206.832031 85.21875 207.957031 85.8125 210.140625 87.335938 C 213.914062 89.917969 222.25 96.335938 224.699219 99.246094 C 225.824219 100.570312 226.285156 101.296875 226.550781 102.488281 C 226.816406 103.746094 226.683594 105.53125 226.085938 106.722656 C 225.492188 107.914062 224.101562 109.039062 222.976562 109.566406 C 222.050781 109.964844 221.125 110.164062 220.132812 109.964844 C 218.941406 109.765625 217.222656 108.972656 216.359375 108.046875 C 215.5 107.1875 215.039062 105.664062 214.839844 104.671875 C 214.707031 103.945312 214.839844 103.347656 214.972656 102.753906 C 215.105469 102.15625 215.300781 101.5625 215.699219 100.964844 C 216.292969 100.105469 217.484375 98.980469 218.609375 98.519531 C 219.734375 98.054688 221.257812 97.988281 222.382812 98.320312 C 223.507812 98.652344 224.765625 99.511719 225.492188 100.4375 C 226.21875 101.363281 226.683594 103.015625 226.75 104.011719 C 226.816406 104.738281 226.683594 105.265625 226.417969 105.929688 C 226.019531 106.855469 225.09375 108.3125 224.101562 108.972656 C 223.109375 109.632812 221.652344 110.03125 220.464844 109.964844 C 219.273438 109.898438 217.75 109.171875 216.890625 108.574219 C 216.292969 108.113281 215.964844 107.714844 215.632812 107.054688 C 215.171875 106.128906 214.707031 104.539062 214.839844 103.347656 C 214.972656 102.15625 215.632812 100.769531 216.425781 99.90625 C 217.289062 99.046875 218.808594 98.386719 219.800781 98.121094 C 220.53125 97.921875 220.992188 97.921875 221.71875 98.121094 C 222.710938 98.386719 224.367188 99.179688 225.160156 99.972656 C 225.890625 100.703125 226.351562 101.496094 226.550781 102.488281 C 226.816406 103.679688 226.683594 105.53125 226.085938 106.722656 C 225.492188 107.914062 224.101562 109.039062 222.976562 109.566406 C 222.050781 109.964844 221.058594 110.097656 220.132812 109.964844 C 219.207031 109.832031 218.542969 109.632812 217.484375 108.972656 C 215.300781 107.648438 211.796875 103.347656 208.621094 100.964844 C 205.445312 98.585938 202.136719 96.203125 198.496094 94.546875 C 194.726562 92.894531 190.753906 91.835938 186.191406 91.171875 C 180.699219 90.378906 173.15625 90.113281 167.664062 90.644531 C 163.164062 91.109375 158.730469 92.363281 155.421875 93.355469 C 153.105469 94.085938 151.453125 94.746094 149.535156 95.605469 C 147.613281 96.46875 145.960938 97.195312 143.84375 98.453125 C 140.800781 100.238281 136.433594 102.953125 133.257812 105.730469 C 130.148438 108.441406 127.5 111.617188 124.988281 114.859375 C 122.472656 118.167969 119.824219 122.402344 118.238281 125.449219 C 117.179688 127.5 116.648438 128.691406 115.921875 130.9375 C 114.929688 134.179688 113.671875 139.078125 113.339844 143.113281 C 113.011719 147.148438 113.539062 151.78125 114.003906 155.15625 C 114.332031 157.605469 114.796875 159.324219 115.328125 161.375 C 115.855469 163.425781 116.253906 165.082031 117.246094 167.394531 C 118.632812 170.835938 122.804688 176.527344 123.597656 179.636719 C 124.058594 181.355469 124.125 182.613281 123.730469 183.871094 C 123.332031 185.128906 122.074219 186.453125 121.082031 187.113281 C 120.222656 187.644531 119.230469 187.90625 118.304688 187.90625 C 117.378906 187.90625 116.386719 187.773438 115.523438 187.3125 C 114.464844 186.714844 112.613281 184.269531 112.613281 184.269531 " clip-rule="nonzero"/></clipPath><clipPath id="e6246f6fe7"><path d="M 214.003906 97.515625 L 260.996094 97.515625 L 260.996094 134.621094 L 214.003906 134.621094 Z M 214.003906 97.515625 " clip-rule="nonzero"/></clipPath><clipPath id="c609d42b07"><path d="M 220 97.527344 C 238.792969 97.988281 243.355469 98.914062 246.597656 99.710938 C 248.847656 100.238281 250.503906 100.636719 252.289062 101.496094 C 254.140625 102.355469 256.058594 103.414062 257.449219 104.871094 C 258.839844 106.257812 260.164062 108.179688 260.558594 110.03125 C 260.957031 111.949219 260.492188 114.464844 259.765625 116.382812 C 259.039062 118.300781 257.449219 119.890625 256.125 121.476562 C 254.804688 123 253.746094 124.191406 251.695312 125.710938 C 248.253906 128.226562 240.3125 133.1875 236.738281 134.113281 C 234.953125 134.578125 233.628906 134.445312 232.503906 134.050781 C 231.578125 133.71875 230.785156 133.054688 230.191406 132.328125 C 229.59375 131.601562 229.066406 130.808594 228.933594 129.8125 C 228.734375 128.625 228.867188 126.769531 229.527344 125.644531 C 230.191406 124.453125 231.578125 123.332031 232.769531 122.867188 C 233.894531 122.402344 235.613281 122.535156 236.609375 122.800781 C 237.335938 123 237.796875 123.265625 238.328125 123.726562 C 239.121094 124.390625 240.179688 125.910156 240.511719 126.835938 C 240.777344 127.5 240.777344 128.027344 240.710938 128.753906 C 240.578125 129.75 239.980469 131.402344 239.386719 132.261719 C 238.988281 132.859375 238.59375 133.253906 237.929688 133.585938 C 237.003906 134.050781 235.417969 134.578125 234.226562 134.445312 C 233.035156 134.3125 231.578125 133.652344 230.71875 132.859375 C 229.859375 132.0625 229.132812 130.742188 228.933594 129.550781 C 228.734375 128.359375 228.933594 126.835938 229.460938 125.777344 C 229.992188 124.71875 231.3125 123.660156 232.175781 123.132812 C 232.835938 122.734375 233.300781 122.601562 234.027344 122.601562 C 235.085938 122.535156 236.871094 122.867188 237.796875 123.332031 C 238.460938 123.660156 238.855469 123.992188 239.253906 124.585938 C 239.851562 125.449219 240.578125 127.101562 240.710938 128.09375 C 240.84375 128.820312 240.777344 129.351562 240.511719 130.011719 C 240.113281 131.070312 239.054688 132.726562 238.0625 133.453125 C 237.269531 134.050781 236.34375 134.378906 235.351562 134.445312 C 234.160156 134.511719 232.308594 134.113281 231.25 133.320312 C 230.191406 132.527344 229.195312 131.070312 228.933594 129.8125 C 228.667969 128.558594 229 126.769531 229.527344 125.644531 C 229.992188 124.71875 230.519531 124.324219 231.511719 123.527344 C 233.695312 121.808594 240.179688 119.425781 242.828125 117.109375 C 244.679688 115.523438 247.195312 113.339844 246.730469 112.082031 C 246.070312 110.363281 238.792969 109.964844 234.492188 109.5 C 229.925781 109.039062 222.976562 109.765625 220.066406 109.433594 C 218.742188 109.304688 218.148438 109.304688 217.289062 108.773438 C 216.230469 108.179688 214.972656 106.855469 214.507812 105.597656 C 214.046875 104.40625 214.113281 102.554688 214.441406 101.429688 C 214.707031 100.503906 215.234375 99.644531 216.03125 99.046875 C 216.957031 98.320312 220 97.527344 220 97.527344 " clip-rule="nonzero"/></clipPath><clipPath id="e5c623e8fb"><path d="M 45 152.207031 L 104.21875 152.207031 L 104.21875 218.730469 L 45 218.730469 Z M 45 152.207031 " clip-rule="nonzero"/></clipPath><clipPath id="dcec79641f"><path d="M 50.152344 152.707031 C 62.0625 152.246094 66.5625 153.171875 70.464844 154.363281 C 74.371094 155.617188 78.339844 157.207031 81.714844 159.390625 C 85.15625 161.640625 88.59375 165.015625 90.910156 167.660156 C 92.566406 169.578125 93.359375 171.035156 94.683594 173.21875 C 96.402344 176.195312 98.71875 179.636719 100.175781 184.070312 C 102.226562 190.421875 103.878906 202.597656 104.078125 208.15625 C 104.210938 211.066406 104.144531 213.117188 103.484375 214.835938 C 102.953125 216.09375 101.894531 217.152344 101.101562 217.75 C 100.503906 218.210938 100.042969 218.34375 99.3125 218.476562 C 98.320312 218.609375 96.667969 218.609375 95.542969 218.144531 C 94.417969 217.683594 93.226562 216.359375 92.699219 215.5 C 92.300781 214.902344 92.167969 214.441406 92.101562 213.710938 C 92.035156 212.71875 92.300781 210.867188 92.699219 209.941406 C 92.960938 209.277344 93.359375 208.882812 93.824219 208.417969 C 94.285156 207.957031 94.75 207.558594 95.410156 207.292969 C 96.335938 206.898438 97.992188 206.566406 99.183594 206.832031 C 100.371094 207.09375 101.695312 208.023438 102.425781 208.75 C 102.953125 209.277344 103.285156 209.675781 103.484375 210.402344 C 103.8125 211.394531 104.011719 213.050781 103.679688 214.242188 C 103.351562 215.433594 102.554688 216.691406 101.628906 217.417969 C 100.703125 218.144531 98.984375 218.542969 97.992188 218.609375 C 97.261719 218.675781 96.734375 218.542969 96.136719 218.34375 C 95.542969 218.144531 94.949219 217.945312 94.417969 217.484375 C 93.625 216.820312 92.566406 215.5 92.234375 214.308594 C 91.902344 213.183594 92.5 212.257812 92.433594 210.535156 C 92.300781 206.566406 91.375 196.507812 89.785156 191.015625 C 88.53125 186.652344 86.410156 182.746094 84.757812 179.835938 C 83.632812 177.785156 82.640625 176.394531 81.382812 174.875 C 80.058594 173.285156 78.933594 171.894531 76.949219 170.507812 C 74.238281 168.585938 69.144531 166.335938 65.902344 165.277344 C 63.519531 164.484375 61.863281 164.21875 59.550781 164.089844 C 56.769531 163.890625 52.535156 164.882812 50.417969 164.550781 C 49.226562 164.351562 48.5 164.089844 47.707031 163.558594 C 46.910156 163.03125 46.183594 162.367188 45.785156 161.507812 C 45.257812 160.382812 44.925781 158.597656 45.191406 157.273438 C 45.457031 156.015625 46.582031 154.558594 47.507812 153.765625 C 48.300781 153.171875 50.152344 152.707031 50.152344 152.707031 " clip-rule="nonzero"/></clipPath><clipPath id="7bc34f1466"><path d="M 206.160156 123 L 242.582031 123 L 242.582031 204.589844 L 206.160156 204.589844 Z M 206.160156 123 " clip-rule="nonzero"/></clipPath><clipPath id="74092912f0"><path d="M 240.261719 127.792969 C 242.1875 140.042969 242.464844 144.3125 242.257812 148.925781 C 241.980469 154.636719 240.949219 162.277344 239.640625 167.921875 C 238.539062 172.605469 237.371094 176.597656 235.582031 180.519531 C 233.789062 184.375 230.96875 188.503906 228.902344 191.328125 C 227.457031 193.324219 226.21875 194.632812 224.773438 196.214844 C 223.257812 197.867188 221.8125 199.65625 220.09375 200.964844 C 218.371094 202.273438 214.585938 204.199219 214.515625 204.128906 C 214.515625 204.128906 215.753906 203.375 215.6875 203.304688 C 215.617188 203.167969 213.828125 204.128906 212.863281 204.199219 C 211.902344 204.269531 210.867188 204.128906 209.972656 203.648438 C 208.871094 203.03125 207.496094 201.652344 206.875 200.550781 C 206.394531 199.65625 206.1875 198.625 206.324219 197.589844 C 206.460938 196.351562 207.289062 194.492188 208.113281 193.597656 C 208.804688 192.839844 209.558594 192.429688 210.523438 192.152344 C 211.625 191.808594 213.484375 191.878906 214.515625 192.152344 C 215.203125 192.359375 215.6875 192.566406 216.238281 193.046875 C 217.0625 193.738281 218.164062 195.113281 218.507812 196.351562 C 218.851562 197.523438 218.578125 199.242188 218.300781 200.277344 C 218.097656 201.03125 217.820312 201.445312 217.269531 201.996094 C 216.511719 202.753906 215.066406 203.785156 213.828125 204.0625 C 212.589844 204.335938 211.007812 204.199219 209.90625 203.648438 C 208.734375 203.097656 207.5625 201.789062 207.011719 200.894531 C 206.601562 200.277344 206.460938 199.792969 206.394531 199.035156 C 206.324219 198.003906 206.601562 196.078125 207.011719 195.113281 C 207.289062 194.425781 207.632812 194.011719 208.253906 193.53125 C 209.078125 192.839844 210.59375 192.015625 211.832031 191.878906 C 213.070312 191.742188 214.722656 192.222656 215.6875 192.703125 C 216.375 193.046875 216.789062 193.390625 217.199219 194.011719 C 217.820312 194.90625 218.648438 196.421875 218.714844 197.660156 C 218.785156 198.898438 218.371094 200.480469 217.613281 201.515625 C 216.855469 202.546875 215.550781 203.578125 214.308594 203.925781 C 213.003906 204.269531 211.210938 204.199219 209.972656 203.648438 C 208.734375 203.097656 207.425781 201.789062 206.875 200.550781 C 206.324219 199.3125 206.324219 197.386719 206.601562 196.144531 C 206.875 195.113281 207.359375 194.21875 208.113281 193.597656 C 208.941406 192.910156 210.179688 193.046875 211.417969 192.152344 C 213.757812 190.433594 217.820312 185.40625 219.953125 182.585938 C 221.46875 180.589844 222.292969 179.417969 223.394531 177.214844 C 224.910156 174.117188 226.492188 169.851562 227.527344 165.375 C 228.835938 159.800781 229.867188 152.367188 229.9375 146.171875 C 230.003906 140.457031 227.871094 132.75 228.078125 129.511719 C 228.144531 128.136719 228.351562 127.449219 228.765625 126.621094 C 229.179688 125.726562 229.796875 124.902344 230.691406 124.351562 C 231.792969 123.660156 233.582031 123.109375 234.960938 123.25 C 236.335938 123.386719 237.988281 124.351562 238.882812 125.246094 C 239.640625 125.933594 240.261719 127.792969 240.261719 127.792969 " clip-rule="nonzero"/></clipPath><clipPath id="27b0a6c975"><path d="M 2 102 L 122.773438 102 L 122.773438 193.65625 L 2 193.65625 Z M 2 102 " clip-rule="nonzero"/></clipPath><clipPath id="db46956b39"><path d="M 114.996094 118.699219 C 102.292969 115.789062 92.894531 114.664062 88.332031 114.265625 C 85.75 114.066406 84.691406 113.933594 82.308594 114 C 78.933594 114.066406 74.105469 114.332031 70.136719 114.992188 C 66.164062 115.589844 61.667969 116.78125 58.492188 117.773438 C 56.242188 118.5 54.917969 118.964844 52.734375 119.957031 C 49.691406 121.34375 45.523438 123.660156 42.148438 125.84375 C 38.707031 128.027344 34.804688 130.875 32.289062 133.121094 C 30.570312 134.644531 29.707031 135.4375 28.1875 137.488281 C 25.472656 141.0625 20.179688 149.398438 18.261719 153.566406 C 17.136719 155.949219 16.871094 157.207031 16.277344 159.589844 C 15.484375 162.964844 14.621094 168.71875 14.359375 172.160156 C 14.160156 174.542969 14.226562 175.996094 14.425781 178.246094 C 14.6875 181.027344 16.144531 185.328125 16.011719 187.511719 C 15.945312 188.703125 15.746094 189.429688 15.285156 190.222656 C 14.820312 191.015625 14.09375 191.8125 13.300781 192.339844 C 12.503906 192.871094 11.511719 193.199219 10.585938 193.265625 C 9.660156 193.332031 8.667969 193.265625 7.808594 192.804688 C 6.683594 192.273438 5.292969 190.953125 4.699219 189.894531 C 4.234375 189.03125 4.035156 188.039062 4.101562 187.113281 C 4.167969 186.054688 4.566406 184.730469 5.226562 183.804688 C 5.953125 182.878906 7.410156 182.019531 8.335938 181.621094 C 9 181.355469 9.527344 181.292969 10.253906 181.355469 C 11.25 181.488281 12.96875 182.085938 13.828125 182.679688 C 14.425781 183.078125 14.753906 183.605469 15.085938 184.136719 C 15.417969 184.664062 15.746094 185.195312 15.878906 185.921875 C 16.078125 186.914062 16.011719 188.636719 15.550781 189.695312 C 15.085938 190.820312 14.027344 191.878906 12.96875 192.472656 C 11.910156 193.070312 10.453125 193.332031 9.261719 193.199219 C 8.070312 193.070312 6.617188 192.140625 5.824219 191.480469 C 5.292969 191.015625 4.960938 190.621094 4.699219 189.957031 C 4.300781 189.03125 4.101562 187.179688 4.234375 186.1875 C 4.300781 185.460938 4.5 184.929688 4.894531 184.335938 C 5.492188 183.472656 6.816406 182.285156 7.742188 181.820312 C 8.402344 181.488281 8.867188 181.355469 9.59375 181.355469 C 10.585938 181.355469 12.371094 181.820312 13.300781 182.285156 C 13.960938 182.613281 14.359375 183.078125 14.753906 183.605469 C 15.152344 184.070312 15.484375 184.535156 15.679688 185.261719 C 15.945312 186.253906 15.679688 189.097656 15.746094 189.097656 C 15.8125 189.097656 16.078125 187.511719 16.011719 187.511719 C 15.878906 187.511719 15.351562 190.488281 14.425781 191.414062 C 13.496094 192.40625 11.910156 193.132812 10.585938 193.265625 C 9.261719 193.398438 7.542969 192.738281 6.550781 192.074219 C 5.691406 191.546875 5.09375 190.753906 4.699219 189.894531 C 4.300781 189.097656 4.300781 187.113281 4.101562 187.113281 C 4.035156 187.113281 3.96875 188.039062 3.835938 188.039062 C 3.574219 188.039062 2.910156 184.402344 2.710938 182.019531 C 2.382812 178.511719 2.316406 173.21875 2.648438 168.984375 C 2.976562 164.882812 3.769531 160.25 4.566406 157.074219 C 5.09375 154.824219 5.558594 153.632812 6.417969 151.449219 C 7.609375 148.40625 9.527344 144.039062 11.511719 140.535156 C 13.5625 137.027344 16.476562 133.054688 18.59375 130.410156 C 20.113281 128.558594 20.972656 127.5 22.761719 125.84375 C 25.273438 123.460938 29.3125 120.21875 32.75 117.773438 C 36.125 115.390625 39.566406 113.074219 43.207031 111.222656 C 46.777344 109.371094 50.550781 107.847656 54.386719 106.589844 C 58.292969 105.332031 61.863281 104.273438 66.363281 103.546875 C 71.921875 102.6875 78.472656 102.089844 85.15625 102.222656 C 92.894531 102.421875 103.8125 104.011719 110.097656 105.199219 C 114.003906 105.929688 117.3125 106.390625 119.363281 107.714844 C 120.75 108.574219 121.613281 109.699219 122.074219 110.957031 C 122.539062 112.214844 122.472656 113.933594 122.007812 115.125 C 121.546875 116.316406 120.355469 117.640625 119.164062 118.234375 C 117.972656 118.832031 114.996094 118.699219 114.996094 118.699219 " clip-rule="nonzero"/></clipPath><clipPath id="697ca9c40b"><path d="M 67 188.339844 L 224.851562 188.339844 L 224.851562 223 L 67 223 Z M 67 188.339844 " clip-rule="nonzero"/></clipPath><clipPath id="ac8f0b0ad8"><path d="M 73.046875 210.667969 C 91.574219 208.816406 94.285156 208.089844 99.511719 206.765625 C 109.238281 204.316406 128.691406 198.097656 140.867188 195.253906 C 150.328125 193.003906 159.390625 191.414062 166.339844 190.289062 C 171.105469 189.496094 175.140625 189.097656 178.515625 188.769531 C 180.894531 188.570312 182.21875 188.371094 184.667969 188.371094 C 188.242188 188.371094 193.070312 188.4375 197.835938 189.097656 C 203.589844 189.894531 212.457031 191.613281 216.824219 193.132812 C 219.339844 193.996094 221.191406 194.722656 222.382812 195.980469 C 223.375 197.039062 223.96875 198.625 224.101562 199.816406 C 224.234375 200.808594 223.96875 201.800781 223.574219 202.664062 C 223.175781 203.523438 222.515625 204.316406 221.785156 204.847656 C 221.058594 205.441406 220.132812 205.90625 219.207031 206.035156 C 218.148438 206.167969 216.691406 206.101562 215.632812 205.574219 C 214.574219 205.042969 213.382812 203.789062 212.855469 202.925781 C 212.457031 202.332031 212.324219 201.734375 212.257812 201.074219 C 212.191406 200.480469 212.058594 199.882812 212.257812 199.15625 C 212.523438 198.164062 213.382812 196.640625 214.046875 195.847656 C 214.574219 195.316406 214.972656 194.988281 215.699219 194.722656 C 216.691406 194.390625 218.476562 194.257812 219.472656 194.390625 C 220.199219 194.523438 220.660156 194.722656 221.257812 195.121094 C 222.117188 195.714844 223.242188 197.105469 223.707031 198.03125 C 224.035156 198.691406 224.101562 199.15625 224.101562 199.882812 C 224.035156 200.875 223.707031 202.53125 223.042969 203.523438 C 222.382812 204.515625 220.925781 205.441406 220 205.839844 C 219.339844 206.101562 218.808594 206.167969 218.082031 206.101562 C 217.089844 206.035156 215.433594 205.640625 214.507812 204.914062 C 213.582031 204.183594 212.722656 202.730469 212.390625 201.734375 C 212.125 201.074219 212.125 200.480469 212.191406 199.816406 C 212.257812 199.15625 212.324219 198.558594 212.65625 197.898438 C 213.117188 196.972656 214.113281 195.648438 215.105469 195.054688 C 216.164062 194.457031 217.617188 194.128906 218.808594 194.257812 C 220.066406 194.390625 221.523438 195.054688 222.382812 195.980469 C 223.308594 196.90625 224.035156 198.496094 224.101562 199.816406 C 224.167969 201.140625 223.640625 202.792969 222.84375 203.855469 C 222.050781 204.914062 220.859375 205.773438 219.207031 206.035156 C 216.097656 206.5 209.746094 203.523438 205.179688 202.597656 C 200.945312 201.734375 197.105469 200.875 192.9375 200.546875 C 188.769531 200.214844 184.402344 200.28125 180.167969 200.546875 C 175.867188 200.808594 172.492188 201.207031 167.265625 202.066406 C 159.0625 203.390625 146.6875 205.972656 135.96875 208.617188 C 124.324219 211.527344 109.96875 216.625 99.976562 218.9375 C 93.027344 220.527344 87.140625 221.519531 82.046875 222.050781 C 78.273438 222.445312 74.503906 223.109375 72.121094 222.445312 C 70.53125 222.050781 69.339844 221.121094 68.546875 220.195312 C 67.886719 219.46875 67.554688 218.609375 67.421875 217.617188 C 67.289062 216.425781 67.621094 214.507812 68.214844 213.449219 C 68.679688 212.585938 69.472656 211.925781 70.269531 211.460938 C 71.0625 211 73.046875 210.667969 73.046875 210.667969 " clip-rule="nonzero"/></clipPath><clipPath id="626d8d40ae"><path d="M 137 191.464844 L 239 191.464844 L 239 236.820312 L 137 236.820312 Z M 137 191.464844 " clip-rule="nonzero"/></clipPath><clipPath id="c7d4dcc429"><path d="M 140.800781 222.910156 C 155.027344 218.542969 162.304688 216.625 168.65625 215.695312 C 175.007812 214.769531 183.277344 214.375 187.976562 214.375 C 190.6875 214.375 192.34375 214.375 194.394531 214.769531 C 196.378906 215.167969 197.902344 215.828125 200.019531 216.753906 C 203.128906 218.144531 207.757812 221.453125 210.933594 222.710938 C 213.183594 223.636719 214.90625 224.101562 216.957031 224.363281 C 218.941406 224.628906 221.324219 225.160156 222.910156 224.363281 C 224.566406 223.570312 226.285156 221.453125 226.683594 219.667969 C 227.078125 217.878906 226.085938 215.433594 225.226562 213.578125 C 224.367188 211.792969 223.308594 210.335938 221.457031 208.75 C 218.675781 206.300781 210.804688 203.125 209.015625 201.40625 C 208.355469 200.808594 208.289062 200.414062 208.023438 199.816406 C 207.757812 199.222656 207.5625 198.625 207.5625 197.898438 C 207.5625 196.90625 207.824219 195.253906 208.488281 194.257812 C 209.148438 193.265625 210.539062 192.273438 211.464844 191.878906 C 212.125 191.546875 212.65625 191.480469 213.382812 191.546875 C 214.441406 191.613281 216.164062 192.140625 217.023438 192.671875 C 217.617188 193.070312 217.949219 193.464844 218.347656 194.0625 C 218.875 194.921875 219.40625 196.640625 219.472656 197.699219 C 219.535156 198.429688 219.339844 199.023438 219.074219 199.617188 C 218.875 200.214844 218.609375 200.742188 218.082031 201.273438 C 217.351562 202 215.898438 202.925781 214.90625 203.257812 C 214.175781 203.523438 213.648438 203.589844 212.921875 203.457031 C 211.929688 203.257812 210.339844 202.664062 209.480469 201.867188 C 208.621094 201.074219 207.824219 199.75 207.628906 198.558594 C 207.429688 197.371094 207.628906 195.847656 208.15625 194.789062 C 208.6875 193.730469 209.8125 192.671875 210.871094 192.140625 C 211.929688 191.613281 213.648438 191.546875 214.640625 191.679688 C 215.367188 191.746094 215.699219 192.011719 216.492188 192.339844 C 218.082031 193.003906 221.457031 194.589844 223.640625 195.847656 C 225.558594 196.972656 227.277344 198.097656 228.867188 199.421875 C 230.453125 200.742188 231.976562 202.199219 233.300781 203.789062 C 234.554688 205.375 235.8125 206.964844 236.671875 208.816406 C 237.535156 210.734375 238.128906 212.917969 238.460938 215.035156 C 238.792969 217.21875 238.792969 219.535156 238.460938 221.71875 C 238.128906 223.835938 237.46875 226.152344 236.410156 227.9375 C 235.351562 229.722656 233.828125 231.246094 232.242188 232.503906 C 230.652344 233.761719 228.800781 234.886719 226.949219 235.613281 C 225.09375 236.339844 222.976562 236.671875 220.992188 236.738281 C 219.007812 236.804688 216.957031 236.605469 214.972656 236.207031 C 212.988281 235.8125 211.597656 235.480469 209.214844 234.554688 C 204.914062 232.964844 197.371094 227.605469 191.878906 226.414062 C 187.3125 225.421875 182.949219 226.414062 178.648438 226.746094 C 174.476562 227.078125 171.105469 227.34375 166.339844 228.203125 C 159.65625 229.460938 146.886719 234.886719 142.386719 234.421875 C 140.535156 234.222656 139.542969 233.496094 138.617188 232.503906 C 137.757812 231.511719 137.027344 229.921875 137.027344 228.597656 C 137.027344 227.277344 137.757812 225.554688 138.484375 224.5625 C 139.078125 223.769531 140.800781 222.910156 140.800781 222.910156 " clip-rule="nonzero"/></clipPath><clipPath id="0f4c04961b"><path d="M 2.34375 153.0625 L 104.230469 153.0625 L 104.230469 224.445312 L 2.34375 224.445312 Z M 2.34375 153.0625 " clip-rule="nonzero"/></clipPath><clipPath id="4efa2faf65"><path d="M 16.011719 160.25 C 14.753906 182.679688 15.152344 184.136719 15.746094 186.121094 C 16.34375 188.105469 16.9375 189.894531 18.128906 192.011719 C 19.851562 195.054688 23.355469 199.816406 25.871094 202.132812 C 27.589844 203.722656 28.914062 204.382812 31.03125 205.441406 C 34.074219 207.03125 38.773438 208.882812 42.742188 210.007812 C 46.648438 211.066406 50.617188 211.726562 54.652344 211.992188 C 58.753906 212.257812 62.460938 211.992188 67.027344 211.59375 C 72.714844 211.132812 81.582031 209.941406 86.148438 209.082031 C 88.660156 208.617188 89.984375 207.890625 92.035156 207.625 C 94.285156 207.292969 97.460938 207.09375 99.25 207.425781 C 100.371094 207.625 101.101562 208.023438 101.828125 208.617188 C 102.554688 209.214844 103.21875 210.007812 103.613281 210.867188 C 104.011719 211.726562 104.144531 212.71875 104.078125 213.644531 C 104.011719 214.574219 103.8125 215.566406 103.21875 216.359375 C 102.554688 217.351562 101.101562 218.609375 99.910156 219.003906 C 98.917969 219.402344 97.59375 219.269531 96.734375 219.070312 C 96.070312 218.9375 95.609375 218.742188 95.011719 218.34375 C 94.21875 217.75 92.960938 216.492188 92.566406 215.367188 C 92.167969 214.242188 92.234375 212.585938 92.433594 211.59375 C 92.566406 210.867188 92.894531 210.402344 93.292969 209.875 C 93.625 209.34375 94.019531 208.882812 94.617188 208.484375 C 95.476562 207.957031 97.066406 207.359375 98.253906 207.359375 C 99.445312 207.359375 100.902344 207.890625 101.828125 208.617188 C 102.753906 209.34375 103.679688 210.601562 103.945312 211.792969 C 104.210938 212.917969 104.078125 214.441406 103.613281 215.566406 C 103.152344 216.691406 102.160156 217.878906 101.101562 218.476562 C 100.042969 219.070312 98.386719 219.269531 97.394531 219.203125 C 96.667969 219.136719 96.136719 218.875 95.542969 218.609375 C 94.949219 218.34375 94.417969 218.078125 93.953125 217.550781 C 93.292969 216.753906 92.433594 215.101562 92.234375 214.109375 C 92.101562 213.382812 92.101562 212.917969 92.300781 212.191406 C 92.566406 211.199219 93.226562 209.675781 94.152344 208.882812 C 95.078125 208.089844 96.667969 207.492188 97.792969 207.359375 C 98.785156 207.226562 99.777344 207.425781 100.636719 207.890625 C 101.695312 208.484375 103.085938 209.675781 103.613281 210.867188 C 104.144531 212.058594 104.210938 213.84375 103.8125 215.101562 C 103.417969 216.359375 102.886719 217.417969 101.234375 218.410156 C 96.269531 221.320312 72.1875 223.238281 65.039062 223.902344 C 62.0625 224.167969 61.136719 224.234375 58.621094 224.167969 C 55.117188 224.101562 50.484375 223.96875 45.984375 223.042969 C 40.625 221.984375 32.816406 219.269531 28.648438 217.484375 C 26.203125 216.425781 24.8125 215.5 23.027344 214.441406 C 21.304688 213.382812 19.71875 212.652344 17.996094 211.132812 C 15.484375 208.949219 12.042969 204.449219 10.125 201.734375 C 8.800781 199.816406 8.070312 198.691406 7.078125 196.574219 C 5.691406 193.464844 3.835938 188.769531 3.175781 184.730469 C 2.515625 180.695312 2.710938 176.660156 2.910156 172.292969 C 3.109375 167.527344 3.175781 160.25 4.566406 157.207031 C 5.292969 155.617188 6.21875 154.691406 7.410156 154.097656 C 8.601562 153.5 10.320312 153.304688 11.578125 153.632812 C 12.835938 153.964844 14.292969 154.957031 15.019531 156.082031 C 15.746094 157.207031 16.011719 160.25 16.011719 160.25 " clip-rule="nonzero"/></clipPath></defs><g clip-path="url(#31813f2841)"><g clip-path="url(#8a8560fb4b)"><path fill="#27265b" d="M 138.949219 96.730469 L 196.578125 96.730469 L 196.578125 138.679688 L 138.949219 138.679688 Z M 138.949219 96.730469 " fill-opacity="1" fill-rule="nonzero"/></g></g><g clip-path="url(#0b6ce11c93)"><g clip-path="url(#bea3f5ecda)"><path fill="#27265b" d="M 200.347656 160.78125 L 240.179688 160.78125 L 240.179688 182.546875 L 200.347656 182.546875 Z M 200.347656 160.78125 " fill-opacity="1" fill-rule="nonzero"/></g></g><g clip-path="url(#9d76c08981)"><g clip-path="url(#e5b03e41f1)"><path fill="#27265b" d="M 158.53125 154.625 L 198.894531 154.625 L 198.894531 176.859375 L 158.53125 176.859375 Z M 158.53125 154.625 " fill-opacity="1" fill-rule="nonzero"/></g></g><g clip-path="url(#4478a0dcce)"><g clip-path="url(#0bb5c06709)"><path fill="#27265b" d="M 98.785156 75.890625 L 229.394531 75.890625 L 229.394531 190.554688 L 98.785156 190.554688 Z M 98.785156 75.890625 " fill-opacity="1" fill-rule="nonzero"/></g></g><g clip-path="url(#e6246f6fe7)"><g clip-path="url(#c609d42b07)"><path fill="#27265b" d="M 211.796875 94.878906 L 263.207031 94.878906 L 263.207031 137.09375 L 211.796875 137.09375 Z M 211.796875 94.878906 " fill-opacity="1" fill-rule="nonzero"/></g></g><g clip-path="url(#e5c623e8fb)"><g clip-path="url(#dcec79641f)"><path fill="#27265b" d="M 42.542969 149.398438 L 106.726562 149.398438 L 106.726562 221.253906 L 42.542969 221.253906 Z M 42.542969 149.398438 " fill-opacity="1" fill-rule="nonzero"/></g></g><g clip-path="url(#7bc34f1466)"><g clip-path="url(#74092912f0)"><path fill="#27265b" d="M 203.570312 120.496094 L 245.011719 120.496094 L 245.011719 206.953125 L 203.570312 206.953125 Z M 203.570312 120.496094 " fill-opacity="1" fill-rule="nonzero"/></g></g><g clip-path="url(#27b0a6c975)"><g clip-path="url(#db46956b39)"><path fill="#27265b" d="M 0 99.578125 L 124.722656 99.578125 L 124.722656 195.914062 L 0 195.914062 Z M 0 99.578125 " fill-opacity="1" fill-rule="nonzero"/></g></g><g clip-path="url(#697ca9c40b)"><g clip-path="url(#ac8f0b0ad8)"><path fill="#27265b" d="M 64.777344 185.722656 L 226.75 185.722656 L 226.75 225.09375 L 64.777344 225.09375 Z M 64.777344 185.722656 " fill-opacity="1" fill-rule="nonzero"/></g></g><g clip-path="url(#626d8d40ae)"><g clip-path="url(#c7d4dcc429)"><path fill="#27265b" d="M 134.382812 188.898438 L 241.105469 188.898438 L 241.105469 239.382812 L 134.382812 239.382812 Z M 134.382812 188.898438 " fill-opacity="1" fill-rule="nonzero"/></g></g><g clip-path="url(#0f4c04961b)"><g clip-path="url(#4efa2faf65)"><path fill="#27265b" d="M 0.265625 150.988281 L 106.726562 150.988281 L 106.726562 226.8125 L 0.265625 226.8125 Z M 0.265625 150.988281 " fill-opacity="1" fill-rule="nonzero"/></g></g><g fill="#27265b" fill-opacity="1"><g transform="translate(72.955079, 282.532521)"><g><path d="M 5.453125 -54.5625 L 31.265625 -54.5625 C 37.390625 -54.5625 42.257812 -53.328125 45.875 -50.859375 C 49.488281 -48.390625 51.296875 -45.078125 51.296875 -40.921875 C 51.296875 -38.066406 50.460938 -35.5625 48.796875 -33.40625 C 47.128906 -31.25 44.84375 -29.753906 41.9375 -28.921875 C 45.363281 -28.242188 48.085938 -26.65625 50.109375 -24.15625 C 52.140625 -21.664062 53.15625 -18.65625 53.15625 -15.125 C 53.15625 -10.5 51.269531 -6.820312 47.5 -4.09375 C 43.738281 -1.363281 38.632812 0 32.1875 0 L 5.453125 0 Z M 19.25 -43.96875 L 19.25 -32.734375 L 30.484375 -32.734375 C 32.503906 -32.734375 34.113281 -33.238281 35.3125 -34.25 C 36.507812 -35.269531 37.109375 -36.664062 37.109375 -38.4375 C 37.109375 -40.144531 36.507812 -41.492188 35.3125 -42.484375 C 34.113281 -43.472656 32.503906 -43.96875 30.484375 -43.96875 Z M 19.25 -22.765625 L 19.25 -10.671875 L 30.484375 -10.671875 C 33.078125 -10.671875 35.113281 -11.21875 36.59375 -12.3125 C 38.082031 -13.40625 38.828125 -14.914062 38.828125 -16.84375 C 38.828125 -18.65625 38.082031 -20.09375 36.59375 -21.15625 C 35.113281 -22.226562 33.078125 -22.765625 30.484375 -22.765625 Z M 19.25 -22.765625 "/></g></g></g><g fill="#27265b" fill-opacity="1"><g transform="translate(128.689281, 282.532521)"><g><path d="M 7.046875 -59.203125 C 8.378906 -60.523438 10.082031 -61.1875 12.15625 -61.1875 C 14.238281 -61.1875 15.941406 -60.523438 17.265625 -59.203125 C 18.585938 -57.878906 19.25 -56.175781 19.25 -54.09375 C 19.25 -52.019531 18.585938 -50.304688 17.265625 -48.953125 C 15.941406 -47.597656 14.238281 -46.921875 12.15625 -46.921875 C 10.082031 -46.921875 8.378906 -47.597656 7.046875 -48.953125 C 5.722656 -50.304688 5.0625 -52.019531 5.0625 -54.09375 C 5.0625 -56.175781 5.722656 -57.878906 7.046875 -59.203125 Z M 18.78125 0 L 5.375 0 L 5.375 -42.015625 L 18.78125 -42.015625 Z M 18.78125 0 "/></g></g></g><g fill="#27265b" fill-opacity="1"><g transform="translate(152.931702, 282.532521)"><g><path d="M 45.53125 -42.015625 L 45.53125 -3.8125 C 45.53125 2.101562 43.4375 6.828125 39.25 10.359375 C 35.0625 13.898438 29.566406 15.671875 22.765625 15.671875 C 15.796875 15.671875 9.554688 13.828125 4.046875 10.140625 L 8.734375 1.015625 C 12.785156 3.816406 17.125 5.21875 21.75 5.21875 C 24.96875 5.21875 27.5 4.4375 29.34375 2.875 C 31.1875 1.320312 32.109375 -0.78125 32.109375 -3.4375 L 32.109375 -7.875 C 29.253906 -4.132812 25.226562 -2.265625 20.03125 -2.265625 C 14.675781 -2.265625 10.320312 -4.132812 6.96875 -7.875 C 3.625 -11.613281 1.953125 -16.523438 1.953125 -22.609375 C 1.953125 -28.535156 3.585938 -33.328125 6.859375 -36.984375 C 10.128906 -40.648438 14.414062 -42.484375 19.71875 -42.484375 C 25.070312 -42.535156 29.203125 -40.664062 32.109375 -36.875 L 32.109375 -42.015625 Z M 23.390625 -12 C 25.984375 -12 28.082031 -12.945312 29.6875 -14.84375 C 31.300781 -16.75 32.109375 -19.207031 32.109375 -22.21875 C 32.109375 -25.28125 31.300781 -27.757812 29.6875 -29.65625 C 28.082031 -31.550781 25.984375 -32.5 23.390625 -32.5 C 20.734375 -32.5 18.585938 -31.550781 16.953125 -29.65625 C 15.316406 -27.757812 14.5 -25.28125 14.5 -22.21875 C 14.5 -19.207031 15.316406 -16.75 16.953125 -14.84375 C 18.585938 -12.945312 20.734375 -12 23.390625 -12 Z M 23.390625 -12 "/></g></g></g><g fill="#27265b" fill-opacity="1"><g transform="translate(203.365302, 282.532521)"><g><path d="M 24.859375 -42.484375 C 31.722656 -42.484375 37.257812 -40.519531 41.46875 -36.59375 C 45.675781 -32.675781 47.78125 -27.492188 47.78125 -21.046875 C 47.78125 -14.597656 45.675781 -9.398438 41.46875 -5.453125 C 37.257812 -1.503906 31.722656 0.46875 24.859375 0.46875 C 17.953125 0.46875 12.394531 -1.503906 8.1875 -5.453125 C 3.976562 -9.398438 1.875 -14.597656 1.875 -21.046875 C 1.875 -27.492188 3.976562 -32.675781 8.1875 -36.59375 C 12.394531 -40.519531 17.953125 -42.484375 24.859375 -42.484375 Z M 24.859375 -31.8125 C 22.054688 -31.8125 19.785156 -30.796875 18.046875 -28.765625 C 16.304688 -26.734375 15.4375 -24.109375 15.4375 -20.890625 C 15.4375 -17.617188 16.304688 -14.984375 18.046875 -12.984375 C 19.785156 -10.984375 22.054688 -9.984375 24.859375 -9.984375 C 27.617188 -9.984375 29.867188 -10.984375 31.609375 -12.984375 C 33.347656 -14.984375 34.21875 -17.617188 34.21875 -20.890625 C 34.21875 -24.109375 33.347656 -26.734375 31.609375 -28.765625 C 29.867188 -30.796875 27.617188 -31.8125 24.859375 -31.8125 Z M 24.859375 -31.8125 "/></g></g></g><g fill="#27265b" fill-opacity="1"><g transform="translate(253.019408, 282.532521)"><g><path d="M 29.859375 -11.609375 L 32.5 -2.265625 C 29.226562 -0.335938 25.488281 0.625 21.28125 0.625 C 17.125 0.625 13.757812 -0.53125 11.1875 -2.84375 C 8.613281 -5.15625 7.328125 -8.441406 7.328125 -12.703125 L 7.328125 -31.265625 L 1.484375 -31.265625 L 1.484375 -40.0625 L 7.328125 -40.0625 L 7.328125 -51.765625 L 20.734375 -51.765625 L 20.734375 -40.140625 L 31.734375 -40.140625 L 31.734375 -31.265625 L 20.734375 -31.265625 L 20.734375 -14.8125 C 20.734375 -13.195312 21.054688 -12.015625 21.703125 -11.265625 C 22.359375 -10.515625 23.335938 -10.164062 24.640625 -10.21875 C 25.878906 -10.21875 27.617188 -10.679688 29.859375 -11.609375 Z M 29.859375 -11.609375 "/></g></g></g><g fill="#27265b" fill-opacity="1"><g transform="translate(286.927635, 282.532521)"><g><path d="M 23.78125 -42.484375 C 31.050781 -42.484375 36.519531 -40.25 40.1875 -35.78125 C 43.851562 -31.3125 45.453125 -25.179688 44.984375 -17.390625 L 15.4375 -17.390625 C 16.113281 -14.890625 17.304688 -12.960938 19.015625 -11.609375 C 20.734375 -10.265625 22.835938 -9.59375 25.328125 -9.59375 C 29.179688 -9.59375 32.535156 -11.019531 35.390625 -13.875 L 42.484375 -6.9375 C 37.960938 -2 31.859375 0.46875 24.171875 0.46875 C 17.359375 0.46875 11.9375 -1.476562 7.90625 -5.375 C 3.882812 -9.269531 1.875 -14.441406 1.875 -20.890625 C 1.875 -27.390625 3.882812 -32.613281 7.90625 -36.5625 C 11.9375 -40.507812 17.226562 -42.484375 23.78125 -42.484375 Z M 15.203125 -24.640625 L 32.03125 -24.640625 C 32.03125 -27.179688 31.289062 -29.226562 29.8125 -30.78125 C 28.332031 -32.34375 26.375 -33.125 23.9375 -33.125 C 21.644531 -33.125 19.71875 -32.359375 18.15625 -30.828125 C 16.601562 -29.296875 15.617188 -27.234375 15.203125 -24.640625 Z M 15.203125 -24.640625 "/></g></g></g><g fill="#27265b" fill-opacity="1"><g transform="translate(333.853488, 282.532521)"><g><path d="M 20.421875 -42.640625 C 26.609375 -42.640625 32.378906 -41.054688 37.734375 -37.890625 L 33.125 -29.15625 C 27.925781 -31.957031 23.507812 -33.359375 19.875 -33.359375 C 17.125 -33.359375 15.75 -32.398438 15.75 -30.484375 C 15.75 -29.441406 16.5 -28.566406 18 -27.859375 C 19.507812 -27.160156 21.351562 -26.523438 23.53125 -25.953125 C 25.71875 -25.378906 27.890625 -24.664062 30.046875 -23.8125 C 32.203125 -22.957031 34.035156 -21.59375 35.546875 -19.71875 C 37.054688 -17.851562 37.8125 -15.566406 37.8125 -12.859375 C 37.8125 -8.648438 36.171875 -5.363281 32.890625 -3 C 29.617188 -0.632812 25.359375 0.546875 20.109375 0.546875 C 12.679688 0.546875 6.394531 -1.425781 1.25 -5.375 L 5.53125 -13.953125 C 10.46875 -10.472656 15.429688 -8.734375 20.421875 -8.734375 C 23.484375 -8.734375 25.015625 -9.691406 25.015625 -11.609375 C 25.015625 -12.703125 24.273438 -13.613281 22.796875 -14.34375 C 21.316406 -15.070312 19.507812 -15.722656 17.375 -16.296875 C 15.25 -16.867188 13.117188 -17.582031 10.984375 -18.4375 C 8.859375 -19.289062 7.054688 -20.625 5.578125 -22.4375 C 4.097656 -24.257812 3.359375 -26.550781 3.359375 -29.3125 C 3.359375 -33.519531 4.941406 -36.789062 8.109375 -39.125 C 11.273438 -41.46875 15.378906 -42.640625 20.421875 -42.640625 Z M 20.421875 -42.640625 "/></g></g></g></svg>